<svg xmlns="http://www.w3.org/2000/svg" viewBox="0 0 1069 1069"><defs><style>.cls-1{fill:#fff;}</style></defs><g id="Capa_2" data-name="Capa 2"><g id="Capa_1-2" data-name="Capa 1"><circle cx="534.5" cy="534.5" r="534.5"/><path class="cls-1" d="M966,723.72c-6.45-4.34-9.9-13.75-9.9-13.75a51,51,0,0,0-.15,21.85l.28.16a270,270,0,0,1-22.65,16.38,42.29,42.29,0,0,1-6.11-13.5A58.9,58.9,0,0,0,924,754.32a277.52,277.52,0,0,1-33.59,16.91,50.84,50.84,0,0,1-3.23-15.68,69.27,69.27,0,0,0-8.36,20.28,273.12,273.12,0,0,1-31.36,9.47,56.19,56.19,0,0,1-1.29-17.15A75.58,75.58,0,0,0,834.7,788a270,270,0,0,1-34.18,4.25A70.79,70.79,0,0,1,802,774.5a90.93,90.93,0,0,0-14.77,18.21,272.19,272.19,0,0,1-29.19-1.29c-.88-11.74,3.19-23.51,3.19-23.51a93.15,93.15,0,0,0-19.89,21.36,288.2,288.2,0,0,1-34.61-7.74c3.44-11.57,11.06-21.26,11.06-21.26A100.37,100.37,0,0,0,689,775.83c-4.32-1.54-8.65-3.17-13-4.94-6.45-2.64-12.54-5.22-18.4-7.79a79.67,79.67,0,0,1,12.85-20.5,106.84,106.84,0,0,0-29.56,12.95c-9.35-4.39-17.91-8.68-25.79-12.92,6.08-12.94,16.83-22.94,16.83-22.94a117.38,117.38,0,0,0-35.37,12.36c-8.9-5.4-16.87-10.75-24.17-16.09,7.61-13.59,21.78-23.46,21.78-23.46a118.72,118.72,0,0,0-40.45,8.68c-8.35-7.13-16-14.37-23.58-21.84,11.94-8.4,26.82-11.68,26.82-11.68a118.73,118.73,0,0,0-45.78-7.34c-6.08-6.1-12.43-12.4-19.35-19,14-6,30.62-5.51,30.62-5.51A115,115,0,0,0,494,621.48c38.91-5.39,76.06.93,76.06.93C625,550.28,710.62,568,710.62,568c-13.93-110.91,91.61-145.93,91.61-145.93,11.63-66.78,76.54-92.9,76.54-92.9-118.65,12.76-122-37.45-122-37.45-21.82,4-65.8,19.59-104.92,34.42C677.2,271.23,747.17,230,747.17,230S642,262.12,626,255.6s.74-26,.74-26C530.07,257,453.67,323.38,453.67,323.38,401.62,441.79,336.92,484.5,308.45,498.3c-6.61.14-11.74-.41-14.88-1.69,0,0-3.21-3.45-8.3-8.67,13.3-13.27,33-20.19,33-20.19a81.61,81.61,0,0,0-50,3.33c-3.23-3.09-6.61-6.24-10-9.34,12.82-17.21,35.88-24,35.88-24-23.3-2.88-44.28,4.58-54,8.86-2.72-2.05-5.33-3.88-7.79-5.42C244.47,422.68,262,408.79,262,408.79c-24.9,5.28-41,16.24-50.65,25.42a50.85,50.85,0,0,0-13.24,1.14c7.23-14.22,19.5-31.22,19.5-31.22-20,7.57-33.31,28.07-38.44,37.29-5.26,2-10.62,4.16-16.19,6-35.48,11.85-92.78-2.18-92.78-2.18-14.78,18.06-5.83,23.68-5.83,23.68,3-.69,9.79,1.52,9.79,1.52-3.52,23.59,15.06,30.26,15.06,30.26A59.92,59.92,0,0,1,110.45,493c37.06,23.35,102.94,6.94,102.94,6.94,31.48,39.7,32.65,87.85,32.65,87.85,17,8,68.23,53.06,82.3,66.47s43.93,7,60.84,13.87c70.94,28.94,125.23,96,254,148.52,217.52,88.77,337.31-106.73,337.31-106.73C975.87,714.62,971,719.23,966,723.72Z"/><path class="cls-1" d="M446.07,1004.44h7.42c7.64,0,12.89,3.55,12.89,12.43s-5.25,12.67-12.51,12.67h-7.8Zm7,19.77c3.63,0,6.49-1.47,6.49-7.34s-2.86-7.1-6.49-7.1h-.39v14.44Z"/><path class="cls-1" d="M470.31,1010.23h5.41l.46,3.32h.16c1.42-2.62,3.59-3.78,5.48-3.78a5.59,5.59,0,0,1,2.39.39l-1.08,5.71a8.78,8.78,0,0,0-2.16-.31c-1.39,0-3.09.85-4,3.24v10.74h-6.64Z"/><path class="cls-1" d="M484.52,1024.05c0-4,3.09-6.25,10.5-7-.16-1.39-1-2-2.7-2a10.56,10.56,0,0,0-4.87,1.62l-2.31-4.32a16.27,16.27,0,0,1,8.49-2.55c5,0,8,2.7,8,9v10.74h-5.41l-.46-1.86h-.15a7.86,7.86,0,0,1-5.33,2.32A5.67,5.67,0,0,1,484.52,1024.05Zm10.5-.46V1021c-3.17.47-4.17,1.47-4.17,2.55,0,.89.62,1.39,1.77,1.39A3.05,3.05,0,0,0,495,1023.59Z"/><path class="cls-1" d="M504.9,1032.7c0-1.58.92-2.78,2.7-3.7v-.16a3.81,3.81,0,0,1-1.78-3.32,4.72,4.72,0,0,1,2.17-3.63v-.15a6,6,0,0,1-2.63-4.94c0-4.79,4-7,8.26-7a10,10,0,0,1,3.09.46h7.18V1015h-2.78a6.63,6.63,0,0,1,.31,2c0,4.55-3.47,6.41-7.8,6.41a9.83,9.83,0,0,1-2.16-.27,1.19,1.19,0,0,0-.46,1.12c0,.84.77,1.15,2.7,1.15h2.89c4.83,0,7.61,1.47,7.61,5,0,4.17-4.32,7-11.2,7C508.6,1037.49,504.9,1036.17,504.9,1032.7Zm13-1.08c0-1-.93-1.16-2.59-1.16h-1.5a10.4,10.4,0,0,1-2.78-.23,1.85,1.85,0,0,0-.7,1.39c0,1.24,1.55,1.78,3.78,1.78S517.87,1032.7,517.87,1031.62Zm-2.16-14.82c0-1.78-.85-2.63-2.09-2.63s-2.08.85-2.08,2.63.85,2.7,2.08,2.7S515.71,1018.65,515.71,1016.8Z"/><path class="cls-1" d="M525.28,1019.88c0-6.4,4.63-10.11,9.57-10.11s9.57,3.71,9.57,10.11-4.63,10.12-9.57,10.12S525.28,1026.29,525.28,1019.88Zm12.35,0c0-2.93-.77-4.78-2.78-4.78s-2.78,1.85-2.78,4.78.77,4.79,2.78,4.79S537.63,1022.82,537.63,1019.88Z"/><path class="cls-1" d="M547.9,1010.23h5.4l.46,2.32h.16a8.69,8.69,0,0,1,6.1-2.78c4.24,0,6,3.09,6,7.87v11.9H559.4v-11c0-2.47-.62-3.08-1.93-3.08a4,4,0,0,0-2.93,1.46v12.67H547.9Z"/><path class="cls-1" d="M568.81,1027.3l2.94-4.1a8.2,8.2,0,0,0,4.71,1.93c1.39,0,1.93-.38,1.93-1.15,0-1-1.78-1.47-3.71-2.24-2.24-.89-4.86-2.55-4.86-5.72,0-3.78,3.09-6.25,7.64-6.25a11.35,11.35,0,0,1,7.1,2.55l-2.93,3.93a7.19,7.19,0,0,0-3.94-1.62c-1.12,0-1.7.31-1.7,1.08,0,1,1.7,1.39,3.63,2.09,2.32.85,4.94,2.32,4.94,5.79,0,3.63-2.85,6.41-8.26,6.41A12.89,12.89,0,0,1,568.81,1027.3Z"/><path class="cls-1" d="M588.19,1018.8a32.65,32.65,0,0,1,5.1-17.68l4.17,1.7a34.4,34.4,0,0,0,0,32l-4.17,1.69A32.6,32.6,0,0,1,588.19,1018.8Z"/><path class="cls-1" d="M601.47,1034.79a34.4,34.4,0,0,0,0-32l4.17-1.7a33.25,33.25,0,0,1,0,35.36Z"/><path class="cls-1" d="M615.13,1033.94c3.13-1,4.71-2.86,4.67-4.79V1025l2,3.51a3.67,3.67,0,0,1-2.24.74,3.63,3.63,0,0,1-3.86-3.63,3.73,3.73,0,0,1,4-3.63c2.85,0,4.4,2.24,4.4,6,0,4.56-2.63,8-7.65,9.42Zm.54-19.92a3.86,3.86,0,1,1,3.86,4A3.86,3.86,0,0,1,615.67,1014Z"/></g></g></svg>