<svg xmlns="http://www.w3.org/2000/svg" viewBox="0 0 991.01 658.09"><defs><style>.cls-1{fill:#fff;}</style></defs><g id="Capa_2" data-name="Capa 2"><g id="Capa_1-2" data-name="Capa 1"><path class="cls-1" d="M975.42,533c-7-4.69-10.68-14.83-10.68-14.83a55,55,0,0,0-.16,23.57l.3.17a295,295,0,0,1-24.42,17.67,45.68,45.68,0,0,1-6.6-14.56,63.32,63.32,0,0,0-3.74,21,300.7,300.7,0,0,1-36.23,18.24,54.75,54.75,0,0,1-3.48-16.91,74.26,74.26,0,0,0-9,21.88,299.21,299.21,0,0,1-33.83,10.21,60.77,60.77,0,0,1-1.4-18.5,81.37,81.37,0,0,0-12.34,21.42A289.7,289.7,0,0,1,797,606.9a76.18,76.18,0,0,1,1.63-19.15,98,98,0,0,0-15.93,19.64A291.52,291.52,0,0,1,751.17,606c-1-12.66,3.43-25.36,3.43-25.36a100.25,100.25,0,0,0-21.45,23,309.27,309.27,0,0,1-37.33-8.35c3.7-12.48,11.93-22.93,11.93-22.93a107.63,107.63,0,0,0-31,16.79c-4.67-1.67-9.34-3.42-14-5.34-7-2.84-13.52-5.63-19.85-8.39a86.11,86.11,0,0,1,13.87-22.12,115.22,115.22,0,0,0-31.89,14c-10.08-4.73-19.32-9.37-27.82-13.94,6.56-14,18.16-24.74,18.16-24.74A126.66,126.66,0,0,0,577,542c-9.61-5.83-18.2-11.59-26.07-17.36,8.2-14.66,23.49-25.3,23.49-25.3a127.87,127.87,0,0,0-43.63,9.37c-9-7.7-17.25-15.5-25.43-23.57,12.87-9.05,28.92-12.59,28.92-12.59a128.15,128.15,0,0,0-49.38-7.92c-6.55-6.58-13.4-13.38-20.87-20.48,15.13-6.48,33-5.95,33-5.95a124.79,124.79,0,0,0-30.76-15.47c42-5.81,82,1,82,1C607.57,345.9,700,365,700,365c-15-119.63,98.81-157.41,98.81-157.41,12.55-72,82.57-100.2,82.57-100.2C753.38,121.15,749.77,67,749.77,67c-23.54,4.32-71,21.13-113.17,37.12C663.93,44.9,739.4.39,739.4.39S625.94,35.08,608.71,28.05s.81-28,.81-28c-104.28,29.56-186.7,101.15-186.7,101.15C366.68,228.88,296.9,275,266.19,289.83c-7.13.15-12.66-.44-16.06-1.82,0,0-3.45-3.72-8.95-9.35,14.35-14.31,35.57-21.78,35.57-21.78a88,88,0,0,0-53.92,3.59c-3.49-3.33-7.13-6.73-10.83-10.07,13.82-18.56,38.7-25.91,38.7-25.91-25.13-3.11-47.76,4.93-58.24,9.55-2.93-2.2-5.75-4.18-8.4-5.84,13.11-19.93,32-34.92,32-34.92-26.86,5.7-44.22,17.52-54.64,27.43a54.48,54.48,0,0,0-14.28,1.22c7.79-15.33,21-33.68,21-33.68-21.62,8.17-35.94,30.29-41.47,40.23-5.67,2.17-11.45,4.48-17.46,6.49C71,247.75,9.18,232.62,9.18,232.62-6.76,252.11,2.9,258.16,2.9,258.16c3.25-.74,10.56,1.65,10.56,1.65-3.81,25.44,16.23,32.63,16.23,32.63a64.73,64.73,0,0,1,22.93-8.38c40,25.18,111,7.48,111,7.48,34,42.82,35.22,94.77,35.22,94.77,18.34,8.66,73.6,57.22,88.77,71.69s47.38,7.51,65.63,15c76.51,31.22,135.08,103.54,273.91,160.2C861.81,728.91,991,518,991,518,986.09,523.16,980.87,528.14,975.42,533Z"/></g></g></svg>